<?xml version="1.0" encoding="utf-8"?>
<!-- Generator: Adobe Illustrator 23.0.3, SVG Export Plug-In . SVG Version: 6.00 Build 0)  -->
<svg version="1.1" id="Ebene_1" xmlns="http://www.w3.org/2000/svg" xmlns:xlink="http://www.w3.org/1999/xlink" x="0px" y="0px"
	 viewBox="0 0 260 260" style="enable-background:new 0 0 260 260;" xml:space="preserve">
<style type="text/css">
	.st0{fill:#FFFFFF00;}
	.st1{fill:#504939;}
	.st2{fill:#552F28;}
	.st3{fill:#CBB491;}
</style>
<rect x="0.4" class="st0" width="259.6" height="260"/>
<path class="st1" d="M259.5,199.5c-6.2-12.4-14.5-27.4-24.8-36.2c-7.8-6.7-11.9-9.8-15.5-10.9H215c-3.6,1.6-6.2,6.2-13.4,11.9
	c-10.3,8.3-25.9,15.5-46-0.5s-53.8,46-53.8,46c-5.7,0-22.2-31-22.2-31s-5.7-6.2-14,0c-7.8,6.2-11.4,30.5-11.4,30.5S48,170,33,175.2
	c-10.3,3.6-24.3,17.1-32.6,25.9V260H260L259.5,199.5L259.5,199.5z"/>
<g>
	<path class="st2" d="M102.3,135.8L80.6,92.4H61v43.4H45.5V33h39.7c19.6,0,32.1,12.4,32.1,30c0,15-8.8,24.3-20.7,27.4l23.8,45.5
		L102.3,135.8L102.3,135.8z M84.2,46.9H60.9V79h23.3c10.3,0,17.6-5.7,17.6-16S94.5,46.9,84.2,46.9z"/>
	<path class="st3" d="M199,135.8v-45h-41.9v45h-15.5V33h15.5v43.9H199V33h15.5v102.9L199,135.8L199,135.8z"/>
</g>
</svg>
